<?xml version="1.0" standalone="no"?>
<!DOCTYPE svg PUBLIC "-//W3C//DTD SVG 20010904//EN"
 "http://www.w3.org/TR/2001/REC-SVG-20010904/DTD/svg10.dtd">
<svg version="1.0" xmlns="http://www.w3.org/2000/svg"
 width="512.000000pt" height="512.000000pt" viewBox="0 0 512.000000 512.000000"
 preserveAspectRatio="xMidYMid meet">
<metadata>
Created by potrace 1.11, written by Peter Selinger 2001-2013
</metadata>
<g transform="translate(0.000000,512.000000) scale(0.100000,-0.100000)"
fill="#000000" stroke="none">
<path d="M0 5035 l0 -85 85 0 85 0 0 85 0 85 -85 0 -85 0 0 -85z"/>
<path d="M340 5035 l0 -85 85 0 85 0 0 85 0 85 -85 0 -85 0 0 -85z"/>
<path d="M683 5035 l0 -85 213 0 214 0 0 85 0 85 -213 0 -214 0 0 -85z"/>
<path d="M1913 5101 c-13 -11 -27 -29 -31 -41 -11 -30 2 -141 27 -230 14 -49
13 -53 -9 -55 -18 -2 -104 -15 -128 -20 -43 -8 -143 -52 -205 -89 -188 -113
-321 -307 -362 -532 -11 -58 -13 -715 -3 -744 5 -14 23 -39 40 -57 l30 -31
-35 -17 c-123 -58 -209 -196 -209 -336 0 -105 28 -180 97 -257 54 -60 114 -97
187 -116 l53 -13 1 -139 c1 -77 2 -143 3 -149 0 -5 115 -124 255 -265 l253
-255 -1 -209 -1 -209 -120 -49 c-66 -27 -241 -99 -390 -159 -299 -122 -296
-121 -345 -142 -19 -8 -197 -81 -395 -162 -198 -80 -369 -150 -380 -155 -11
-5 -60 -25 -110 -45 -142 -57 -136 -42 -135 -328 l1 -242 26 -27 27 -28 2507
0 2507 0 26 31 26 31 0 829 c0 612 -3 836 -12 852 -25 47 -18 46 -503 47
l-459 0 -278 -277 c-155 -155 -278 -285 -278 -295 0 -10 -3 -18 -7 -18 -5 1
-82 31 -173 69 l-165 68 -1 209 -2 209 254 255 c185 186 254 263 255 280 1 14
3 77 4 140 1 63 3 120 4 126 0 6 18 14 39 18 51 8 132 52 181 99 122 116 150
309 66 459 -29 52 -109 129 -155 150 -38 16 -38 24 3 66 l32 33 -1 357 c0 401
-7 454 -69 588 -77 168 -192 287 -356 369 -95 48 -179 72 -286 79 -49 4 -61 9
-78 32 -115 157 -249 251 -415 293 -66 16 -119 19 -430 20 -335 1 -356 0 -377
-18z"/>
<path d="M4010 5035 l0 -85 85 0 85 0 0 85 0 85 -85 0 -85 0 0 -85z"/>
<path d="M4350 5035 l0 -85 85 0 c74 0 85 2 86 18 1 9 1 46 2 82 l0 65 -86 3
-87 3 0 -86z"/>
<path d="M4693 5035 l-1 -85 214 0 214 0 0 85 0 85 -213 0 -213 0 -1 -85z"/>
<path d="M0 4695 l0 -85 255 0 255 0 0 85 0 85 -255 0 -255 0 0 -85z"/>
<path d="M683 4695 l-1 -85 129 0 129 0 0 85 0 85 -128 0 -128 0 -1 -85z"/>
<path d="M4010 4695 l0 -85 257 2 257 3 -1 70 c-1 39 -2 76 -2 83 -1 9 -59 12
-256 12 l-255 0 0 -85z"/>
<path d="M4694 4695 l0 -85 128 0 128 0 0 85 0 85 -128 0 -128 0 0 -85z"/>
<path d="M0 4351 l0 -86 167 1 168 0 3 86 3 85 -171 0 -170 0 0 -86z"/>
<path d="M510 4354 c0 -46 3 -84 8 -85 54 -6 162 -2 163 6 1 14 1 138 0 151
-1 6 -34 11 -86 11 l-85 1 0 -84z"/>
<path d="M862 4431 c-6 -3 -9 -42 -8 -85 l1 -80 78 0 c43 -1 82 4 86 9 6 8 7
128 2 156 -1 8 -146 8 -159 0z"/>
<path d="M4181 4355 c-1 -60 2 -84 11 -87 11 -3 193 -2 234 1 7 1 11 30 11 84
l0 83 -127 1 -127 1 -2 -83z"/>
<path d="M4610 4352 l0 -87 73 1 c39 1 78 2 85 3 10 1 12 22 10 84 l-3 82 -82
2 -83 2 0 -87z"/>
<path d="M4952 4352 l3 -86 70 1 c39 1 76 1 83 2 8 1 12 25 12 84 l0 83 -85 1
-86 0 3 -85z"/>
<path d="M98 3579 c-9 -5 -13 -31 -13 -86 l1 -78 84 0 84 0 1 83 c1 45 -1 82
-4 83 -30 5 -143 4 -153 -2z"/>
<path d="M429 3565 c-2 -24 -1 -125 0 -141 1 -7 30 -11 84 -10 l83 0 1 83 c0
55 -3 83 -11 84 -6 1 -44 2 -83 3 -67 2 -73 0 -74 -19z"/>
<path d="M774 3581 c-2 -2 -4 -41 -4 -86 l0 -82 127 1 127 1 1 78 c1 45 -3 81
-9 85 -12 7 -235 10 -242 3z"/>
<path d="M4184 3581 c-2 -2 -4 -41 -4 -86 l0 -82 85 1 85 0 0 86 0 85 -81 0
c-44 0 -82 -2 -85 -4z"/>
<path d="M4538 3582 c-14 -3 -16 -16 -15 -85 l2 -82 85 -1 85 -2 -2 69 c0 38
-2 77 -2 87 -1 15 -11 18 -68 18 -38 -1 -75 -2 -85 -4z"/>
<path d="M4871 3580 c-6 -4 -8 -133 -2 -161 0 -3 56 -6 124 -5 l122 1 0 85 0
85 -118 0 c-66 0 -122 -2 -126 -5z"/>
<path d="M170 3157 l0 -88 128 3 127 3 0 84 0 84 -128 1 -127 1 0 -88z"/>
<path d="M601 3235 c-5 -8 -6 -112 -2 -157 1 -5 57 -8 126 -8 112 0 125 2 126
18 5 89 2 152 -6 153 -77 6 -238 2 -244 -6z"/>
<path d="M4272 3240 c-4 -3 -7 -41 -7 -85 l1 -80 127 -3 c70 -1 127 1 128 5 5
52 2 156 -5 160 -11 7 -236 10 -244 3z"/>
<path d="M4700 3235 c-4 -5 -7 -44 -7 -85 l2 -75 128 -3 127 -3 0 88 0 88
-121 0 c-68 0 -124 -4 -129 -10z"/>
<path d="M0 2815 l0 -85 213 0 212 0 2 85 2 85 -215 0 -214 0 0 -85z"/>
<path d="M599 2880 c0 -11 -2 -49 -2 -85 l-2 -65 88 0 87 0 0 85 0 85 -85 0
c-78 0 -85 -2 -86 -20z"/>
<path d="M4350 2815 l0 -85 215 0 215 0 0 85 0 85 -215 0 -215 0 0 -85z"/>
<path d="M4950 2815 l0 -85 85 0 85 0 0 85 0 85 -85 0 -85 0 0 -85z"/>
<path d="M10 1962 c-6 -2 -10 -41 -10 -88 l0 -84 85 0 85 0 0 85 c0 47 -3 85
-7 86 -32 3 -145 3 -153 1z"/>
<path d="M357 1962 c-14 -3 -17 -17 -17 -87 l0 -83 85 -1 85 -2 0 88 0 88 -68
0 c-38 0 -76 -1 -85 -3z"/>
<path d="M685 1960 c-1 -3 -2 -41 -1 -85 l1 -80 213 -3 212 -2 0 85 c0 61 -4
85 -12 86 -54 4 -411 3 -413 -1z"/>
<path d="M0 1535 l0 -85 255 0 255 0 0 85 0 85 -255 0 -255 0 0 -85z"/>
<path d="M683 1538 l2 -83 128 -3 127 -3 0 86 0 85 -129 0 -129 0 1 -82z"/>
<path d="M1110 1535 l0 -85 85 0 85 0 0 85 0 85 -85 0 -85 0 0 -85z"/>
<path d="M0 1195 l0 -85 170 0 170 0 0 85 0 85 -170 0 -170 0 0 -85z"/>
<path d="M510 1195 l0 -85 85 0 c74 0 85 2 86 18 1 9 1 46 2 82 l0 65 -86 3
-87 3 0 -86z"/>
</g>
</svg>
